<svg width="27" height="28" viewBox="0 0 27 28" fill="none" xmlns="http://www.w3.org/2000/svg">
<path d="M5.74546 28C5.74546 27.6727 5.7091 27.5273 5.56364 27.5273L4.72728 27.9273C4.72728 27.7455 4.61819 27.6364 4.43637 27.5637L4.14546 27.5273C3.89091 27.5273 3.78182 27.5637 3.41819 27.7818C3.3091 27.5637 3.16364 27.3091 3.05455 27.0909C2.10909 25.2727 1.12728 22.5455 0.690911 21.3455C0.472729 20.7273 0.254547 19.4546 1.58043e-06 17.5273C0.290911 17.7091 0.509093 17.7818 0.618184 17.7818C0.763639 17.7818 0.945457 17.5273 1.09091 17.0182C1.16364 17.1273 1.30909 17.1636 1.49091 17.1636C1.6 17.1636 1.74546 17.1273 1.81819 17.0182L2.4 16.1455L3.05455 16.3636H3.09091C3.16364 16.3636 3.27273 16.2545 3.45455 16.1455C3.63637 16.0364 3.78182 15.9636 3.89091 15.9636L4.00001 16C4.58182 16.2909 4.98183 16.8 5.16364 17.6C5.60001 19.4546 6.00001 20.3636 6.47274 20.3636C6.87274 20.3636 7.41819 19.8909 8.00001 18.9818C8.58183 18.0727 9.16365 16.8364 9.81819 15.3455C9.85456 15.6364 9.89092 15.7818 9.96365 15.7818C10.1818 15.7818 10.7273 14.5091 12.0727 12.3636C14.0727 9.12727 19.0182 2.90908 20.2909 2.03635C21.2364 1.3818 21.9637 0.763622 22.4728 0.218167C22.4 0.581804 22.3273 0.83635 22.3273 0.94544C22.3273 1.05453 22.4 1.09089 22.4728 1.09089L23.4909 0.581804V0.727259C23.4909 0.909077 23.5273 1.01817 23.6364 1.01817C23.7818 1.01817 24.3637 0.436349 24.4364 0.218167L24.3637 0.727259L25.6 -1.42088e-05L25.3091 0.654532C25.6728 0.399985 25.9637 0.25453 26.1455 0.25453C26.3273 0.25453 26.4364 0.54544 26.4364 0.727259C26.4364 1.01817 26.1818 1.41817 25.7818 1.92726C25.3455 2.50908 24.2546 3.63635 20.9818 7.38181C19.5637 8.98181 13.2727 17.5273 12.0727 19.5636L9.81819 23.3818C8.83637 25.0182 8.21819 26.0727 7.89092 26.4727C7.56365 26.8727 7.16365 27.2727 6.69092 27.6364L6.36364 27.4546L6.07274 27.6364L5.74546 28Z" fill="#2B79C2"/>
</svg>
